<svg width="50" height="50" viewBox="0 0 50 50" fill="none" xmlns="http://www.w3.org/2000/svg">
<mask id="mask0_262_7" style="mask-type:alpha" maskUnits="userSpaceOnUse" x="0" y="0" width="50" height="50">
<rect width="50" height="50" fill="#D9D9D9"/>
</mask>
<g mask="url(#mask0_262_7)">
<path d="M19.5833 34.375L25 28.9583L30.4167 34.375L33.3333 31.4583L27.9167 26.0417L33.3333 20.625L30.4167 17.7083L25 23.125L19.5833 17.7083L16.6667 20.625L22.0833 26.0417L16.6667 31.4583L19.5833 34.375ZM14.5833 43.75C13.4375 43.75 12.4566 43.342 11.6406 42.526C10.8247 41.7101 10.4167 40.7292 10.4167 39.5833V12.5H8.33334V8.33333H18.75V6.25H31.25V8.33333H41.6667V12.5H39.5833V39.5833C39.5833 40.7292 39.1754 41.7101 38.3594 42.526C37.5434 43.342 36.5625 43.75 35.4167 43.75H14.5833ZM35.4167 12.5H14.5833V39.5833H35.4167V12.5Z" fill="#EC4F51"/>
</g>
</svg>
