<svg width="47" height="47" viewBox="0 0 47 47" fill="none" xmlns="http://www.w3.org/2000/svg">
<path d="M17.4657 40.7534C19.6093 40.7534 21.347 39.0157 21.347 36.8721C21.347 34.7286 19.6093 32.9908 17.4657 32.9908C15.3221 32.9908 13.5844 34.7286 13.5844 36.8721C13.5844 39.0157 15.3221 40.7534 17.4657 40.7534Z" stroke="white" stroke-width="5" stroke-linecap="round" stroke-linejoin="round"/>
<path d="M32.9909 40.7534C35.1344 40.7534 36.8721 39.0157 36.8721 36.8721C36.8721 34.7286 35.1344 32.9908 32.9909 32.9908C30.8473 32.9908 29.1096 34.7286 29.1096 36.8721C29.1096 39.0157 30.8473 40.7534 32.9909 40.7534Z" stroke="white" stroke-width="5" stroke-linecap="round" stroke-linejoin="round"/>
<path d="M5.8219 5.8219H9.70317L13.5844 29.1096C14.0031 30.3001 14.7972 31.3224 15.8473 32.0224C16.8973 32.7224 18.1464 33.0623 19.4064 32.9908H32.9908C34.2508 33.0623 35.4999 32.7224 36.5499 32.0224C37.6 31.3224 38.3941 30.3001 38.8127 29.1096L40.7534 15.5251H11.2557" stroke="white" stroke-width="5" stroke-linecap="round" stroke-linejoin="round"/>
</svg>
